<?xml version="1.0" encoding="utf-8"?>
<!-- Generator: Adobe Illustrator 21.1.0, SVG Export Plug-In . SVG Version: 6.00 Build 0)  -->
<svg version="1.1" xmlns="http://www.w3.org/2000/svg" xmlns:xlink="http://www.w3.org/1999/xlink" x="0px" y="0px"
	 viewBox="0 0 24 24" style="enable-background:new 0 0 24 24;" xml:space="preserve">
<style type="text/css">
	.st0{display:none;}
	.st1{display:inline;}
	.st2{fill:none;stroke:#000000;stroke-width:2;stroke-linecap:round;stroke-linejoin:round;stroke-miterlimit:10;}
</style>
<g id="Layer_1" class="st0">
	<g class="st1">
		<line class="st2" x1="23" y1="1" x2="14" y2="10"/>
		<line class="st2" x1="14" y1="4" x2="14" y2="10"/>
		<line class="st2" x1="20" y1="10" x2="14" y2="10"/>
		<line class="st2" x1="1" y1="23" x2="11" y2="13"/>
		<line class="st2" x1="5" y1="13" x2="11" y2="13"/>
		<line class="st2" x1="11" y1="19" x2="11" y2="13"/>
	</g>
</g>
<g id="Layer_2">
	<g>
		<path style="fill:#fff" d="M23.7,0.3c-0.4-0.4-1-0.4-1.4,0L16,6.6V3c0-0.6-0.4-1-1-1s-1,0.4-1,1v6c0,0.1,0,0.3,0.1,0.4c0.1,0.2,0.3,0.4,0.5,0.5
			C14.7,10,14.9,10,15,10h6c0.6,0,1-0.4,1-1s-0.4-1-1-1h-3.6l6.3-6.3C24.1,1.3,24.1,0.7,23.7,0.3z"/>
		<path style="fill:#fff" d="M10.4,13.1C10.3,13,10.1,13,10,13H4c-0.6,0-1,0.4-1,1s0.4,1,1,1h3.6l-7.3,7.3c-0.4,0.4-0.4,1,0,1.4C0.5,23.9,0.7,24,1,24
			s0.5-0.1,0.7-0.3L9,16.4V20c0,0.6,0.4,1,1,1s1-0.4,1-1v-6c0-0.1,0-0.3-0.1-0.4C10.8,13.4,10.6,13.2,10.4,13.1z"/>
	</g>
</g>
</svg>
