<?xml version="1.0" encoding="utf-8"?>
<!-- Generator: Adobe Illustrator 21.1.0, SVG Export Plug-In . SVG Version: 6.00 Build 0)  -->
<svg version="1.1" id="Layer_1" xmlns="http://www.w3.org/2000/svg" xmlns:xlink="http://www.w3.org/1999/xlink" x="0px" y="0px"
	 viewBox="0 0 24 24" style="enable-background:new 0 0 24 24;" xml:space="preserve">
<g>
	<path style="fill:#fff" d="M23.9,0.6c-0.1-0.2-0.3-0.4-0.5-0.5C23.3,0,23.1,0,23,0h-6c-0.6,0-1,0.4-1,1s0.4,1,1,1h3.6l-6.3,6.3c-0.4,0.4-0.4,1,0,1.4
		C14.5,9.9,14.7,10,15,10s0.5-0.1,0.7-0.3L22,3.4V7c0,0.6,0.4,1,1,1s1-0.4,1-1V1C24,0.9,24,0.7,23.9,0.6z"/>
	<path style="fill:#fff" d="M9.3,13.3L2,20.6V17c0-0.6-0.4-1-1-1s-1,0.4-1,1v6c0,0.1,0,0.3,0.1,0.4c0.1,0.2,0.3,0.4,0.5,0.5C0.7,24,0.9,24,1,24h6
		c0.6,0,1-0.4,1-1s-0.4-1-1-1H3.4l7.3-7.3c0.4-0.4,0.4-1,0-1.4S9.7,12.9,9.3,13.3z"/>
</g>
</svg>
